<svg width="112" height="62" viewBox="0 0 112 62" fill="none" xmlns="http://www.w3.org/2000/svg">
<path d="M27.1846 4.17126L26.0972 11.5658H10.4901V22.0571H24.1143V29.3252H10.4901V40.5117H27.1846V47.9694H0V4.17126H27.1846Z" fill="#0B0C12"/>
<path d="M45.1254 13.3354C47.556 13.3354 49.8374 13.6935 51.9695 14.4098C54.1017 15.1261 55.9779 16.1373 57.5983 17.4434L53.8884 23.0683C51.1167 21.3408 48.3236 20.4771 45.5092 20.4771C44.1873 20.4771 43.1639 20.7088 42.4389 21.1723C41.7567 21.5936 41.4155 22.2046 41.4155 23.0051C41.4155 23.6371 41.5648 24.1638 41.8633 24.5851C42.2044 24.9643 42.8654 25.3646 43.8461 25.7859C44.8269 26.2073 46.3407 26.7129 48.3876 27.3028C51.9269 28.314 54.5494 29.6412 56.2551 31.2844C58.0034 32.8855 58.8776 35.1186 58.8776 37.9837C58.8776 40.2589 58.2167 42.2392 56.8947 43.9246C55.5728 45.5678 53.7605 46.8318 51.4578 47.7166C49.1551 48.6014 46.5966 49.0438 43.7822 49.0438C40.9251 49.0438 38.26 48.6014 35.7867 47.7166C33.3561 46.8318 31.2879 45.6099 29.5822 44.051L34.5074 38.6157C37.3645 40.8067 40.3708 41.9021 43.5263 41.9021C45.0615 41.9021 46.2554 41.6283 47.1083 41.0805C48.0038 40.5328 48.4515 39.7533 48.4515 38.7421C48.4515 37.9416 48.281 37.3095 47.9398 36.8461C47.5987 36.3826 46.9377 35.9613 45.9569 35.5821C44.9762 35.1607 43.4197 34.6551 41.2876 34.0652C37.9188 33.0962 35.4029 31.7479 33.7399 30.0204C32.0768 28.2929 31.2453 26.1441 31.2453 23.5739C31.2453 21.6357 31.7996 19.9083 32.9083 18.3914C34.0597 16.8325 35.6801 15.6106 37.7696 14.7258C39.9017 13.7988 42.3537 13.3354 45.1254 13.3354Z" fill="#0B0C12"/>
<path d="M73.1031 49.0438C70.1607 49.0438 67.858 48.2222 66.195 46.579C64.5746 44.8936 63.7643 42.5131 63.7643 39.4373V1.07441L73.8706 0V39.0581C73.8706 40.4485 74.4463 41.1437 75.5976 41.1437C76.1946 41.1437 76.749 41.0384 77.2607 40.8277L79.2436 47.9062C77.4099 48.6646 75.3631 49.0438 73.1031 49.0438Z" fill="#0B0C12"/>
<path d="M101.19 48.0326C99.8256 52.3724 97.5868 55.701 94.4739 58.0183C91.4037 60.3778 87.2673 61.7051 82.065 62L80.9776 54.9847C84.2184 54.5634 86.6064 53.8471 88.1415 52.8359C89.7193 51.8247 90.9772 50.2025 91.9154 47.9694H88.4613L78.0992 14.4098H88.8451L94.9217 41.5861L101.574 14.4098H112L101.19 48.0326Z" fill="#0B0C12"/>
</svg>
