<svg width="25" height="25" viewBox="0 0 25 25" fill="none" xmlns="http://www.w3.org/2000/svg">
<g clip-path="url(#clip0_12_190)">
<path d="M18.2292 4.6875C16.1979 4.6875 14.0104 5.10417 12.5 6.25C10.9896 5.10417 8.8021 4.6875 6.77085 4.6875C5.26044 4.6875 3.65627 4.91667 2.31252 5.51042C1.5521 5.85417 1.04169 6.59375 1.04169 7.4375V19.1875C1.04169 20.5417 2.31252 21.5417 3.62502 21.2083C4.64585 20.9479 5.72919 20.8333 6.77085 20.8333C8.39585 20.8333 10.125 21.1042 11.5209 21.7917C12.1459 22.1042 12.8542 22.1042 13.4688 21.7917C14.8646 21.0938 16.5938 20.8333 18.2188 20.8333C19.2604 20.8333 20.3438 20.9479 21.3646 21.2083C22.6771 21.5521 23.9479 20.5521 23.9479 19.1875V7.4375C23.9479 6.59375 23.4375 5.85417 22.6771 5.51042C21.3438 4.91667 19.7396 4.6875 18.2292 4.6875ZM21.875 17.9479C21.875 18.6042 21.2709 19.0833 20.625 18.9688C19.8438 18.8229 19.0313 18.7604 18.2292 18.7604C16.4584 18.7604 13.9063 19.4375 12.5 20.3229V8.33333C13.9063 7.44792 16.4584 6.77083 18.2292 6.77083C19.1875 6.77083 20.1354 6.86458 21.0417 7.0625C21.5209 7.16667 21.875 7.59375 21.875 8.08333V17.9479Z" fill="url(#paint0_linear_12_190)"/>
<path d="M14.5625 11.4687C14.2292 11.4687 13.9271 11.2603 13.823 10.927C13.6875 10.5208 13.9167 10.0728 14.323 9.94785C15.9271 9.42701 18 9.26035 19.9063 9.4791C20.3334 9.53118 20.6459 9.9166 20.5938 10.3437C20.5417 10.7708 20.1563 11.0833 19.7292 11.0312C18.0417 10.8333 16.198 10.9895 14.8021 11.4374C14.7188 11.4478 14.6355 11.4687 14.5625 11.4687Z" fill="url(#paint1_linear_12_190)"/>
<path d="M14.5625 14.2397C14.2292 14.2397 13.9271 14.0313 13.823 13.698C13.6875 13.2918 13.9167 12.8438 14.323 12.7188C15.9167 12.198 18 12.0313 19.9063 12.2501C20.3334 12.3022 20.6459 12.6876 20.5938 13.1147C20.5417 13.5418 20.1563 13.8543 19.7292 13.8022C18.0417 13.6043 16.198 13.7605 14.8021 14.2084C14.7188 14.2293 14.6355 14.2397 14.5625 14.2397Z" fill="url(#paint2_linear_12_190)"/>
<path d="M14.5625 17.0104C14.2292 17.0104 13.9271 16.8021 13.823 16.4688C13.6875 16.0625 13.9167 15.6146 14.323 15.4896C15.9167 14.9688 18 14.8021 19.9063 15.0208C20.3334 15.0729 20.6459 15.4583 20.5938 15.8854C20.5417 16.3125 20.1563 16.6146 19.7292 16.5729C18.0417 16.375 16.198 16.5313 14.8021 16.9792C14.7188 17 14.6355 17.0104 14.5625 17.0104Z" fill="url(#paint3_linear_12_190)"/>
</g>
<defs>
<linearGradient id="paint0_linear_12_190" x1="12.4948" y1="4.6875" x2="12.4948" y2="22.026" gradientUnits="userSpaceOnUse">
<stop stop-color="#CCFF33"/>
<stop offset="1" stop-color="#68FF20"/>
</linearGradient>
<linearGradient id="paint1_linear_12_190" x1="17.1917" y1="9.38525" x2="17.1917" y2="11.4687" gradientUnits="userSpaceOnUse">
<stop stop-color="#CCFF33"/>
<stop offset="1" stop-color="#68FF20"/>
</linearGradient>
<linearGradient id="paint2_linear_12_190" x1="17.1917" y1="12.1562" x2="17.1917" y2="14.2397" gradientUnits="userSpaceOnUse">
<stop stop-color="#CCFF33"/>
<stop offset="1" stop-color="#68FF20"/>
</linearGradient>
<linearGradient id="paint3_linear_12_190" x1="17.1917" y1="14.927" x2="17.1917" y2="17.0104" gradientUnits="userSpaceOnUse">
<stop stop-color="#CCFF33"/>
<stop offset="1" stop-color="#68FF20"/>
</linearGradient>
<clipPath id="clip0_12_190">
<rect width="25" height="25" fill="white"/>
</clipPath>
</defs>
</svg>
